<svg xmlns="http://www.w3.org/2000/svg" width="1024" height="1024" viewBox="0 0 1024 1024">
  <defs>
    <linearGradient id="bg" x1="120" y1="70" x2="900" y2="940" gradientUnits="userSpaceOnUse">
      <stop offset="0" stop-color="#14b8a6"/>
      <stop offset="0.48" stop-color="#0f766e"/>
      <stop offset="1" stop-color="#fb923c"/>
    </linearGradient>
    <linearGradient id="panel" x1="230" y1="190" x2="820" y2="770" gradientUnits="userSpaceOnUse">
      <stop offset="0" stop-color="#ffffff" stop-opacity="0.96"/>
      <stop offset="0.58" stop-color="#fbfffe" stop-opacity="0.9"/>
      <stop offset="1" stop-color="#e9f7f5" stop-opacity="0.84"/>
    </linearGradient>
    <linearGradient id="glass" x1="250" y1="215" x2="780" y2="780" gradientUnits="userSpaceOnUse">
      <stop offset="0" stop-color="#ffffff" stop-opacity="0.7"/>
      <stop offset="1" stop-color="#ffffff" stop-opacity="0.18"/>
    </linearGradient>
    <linearGradient id="cardGlass" x1="0" y1="0" x2="154" y2="202" gradientUnits="userSpaceOnUse">
      <stop offset="0" stop-color="#ffffff" stop-opacity="0.92"/>
      <stop offset="1" stop-color="#ffffff" stop-opacity="0.68"/>
    </linearGradient>
    <filter id="shadow" x="-20%" y="-20%" width="140%" height="150%">
      <feDropShadow dx="0" dy="30" stdDeviation="30" flood-color="#12312d" flood-opacity="0.2"/>
    </filter>
    <filter id="softShadow" x="-40%" y="-40%" width="180%" height="180%">
      <feDropShadow dx="0" dy="14" stdDeviation="16" flood-color="#0f766e" flood-opacity="0.18"/>
    </filter>
  </defs>

  <rect width="1024" height="1024" rx="224" fill="url(#bg)"/>
  <circle cx="786" cy="196" r="66" fill="#fff7ed" opacity="0.34"/>
  <circle cx="190" cy="778" r="78" fill="#ccfbf1" opacity="0.18"/>
  <path d="M174 302c66-94 160-150 280-168" stroke="#ccfbf1" stroke-width="18" stroke-linecap="round" opacity="0.2"/>
  <path d="M690 858c76-38 128-94 156-168" stroke="#fff7ed" stroke-width="16" stroke-linecap="round" opacity="0.16"/>

  <g filter="url(#shadow)">
    <rect x="188" y="178" width="648" height="668" rx="82" fill="url(#panel)"/>
    <rect x="205" y="195" width="614" height="634" rx="68" fill="url(#glass)" opacity="0.58"/>
    <rect x="188" y="178" width="648" height="668" rx="82" fill="none" stroke="#ffffff" stroke-opacity="0.72" stroke-width="4"/>
  </g>

  <g transform="translate(246 244)">
    <rect x="0" y="0" width="532" height="80" rx="30" fill="#d9f5f1" opacity="0.82"/>
    <rect x="0" y="0" width="532" height="80" rx="30" fill="none" stroke="#ffffff" stroke-opacity="0.68" stroke-width="3"/>
    <circle cx="48" cy="40" r="16" fill="#0d9488"/>
    <circle cx="96" cy="40" r="16" fill="#f97316"/>
    <rect x="142" y="27" width="314" height="26" rx="13" fill="#0f766e" opacity="0.2"/>
  </g>

  <text x="512" y="462"
        text-anchor="middle"
        font-family="PingFang SC, Microsoft YaHei, Noto Sans CJK SC, system-ui, sans-serif"
        font-size="154"
        font-weight="900"
        letter-spacing="10"
        fill="#12312d">秋招</text>

  <g transform="translate(242 520)" filter="url(#softShadow)">
    <rect x="0" y="0" width="154" height="202" rx="34" fill="url(#cardGlass)"/>
    <rect x="1.5" y="1.5" width="151" height="199" rx="32" fill="none" stroke="#ffffff" stroke-opacity="0.7" stroke-width="3"/>
    <rect x="28" y="34" width="98" height="18" rx="9" fill="#0d9488"/>
    <rect x="28" y="74" width="78" height="16" rx="8" fill="#b9d0cb"/>
    <rect x="28" y="115" width="98" height="44" rx="16" fill="#d9f5f1"/>
    <circle cx="120" cy="158" r="23" fill="#148c5b"/>
  </g>

  <g transform="translate(434 520)" filter="url(#softShadow)">
    <rect x="0" y="0" width="154" height="202" rx="34" fill="url(#cardGlass)"/>
    <rect x="1.5" y="1.5" width="151" height="199" rx="32" fill="none" stroke="#ffffff" stroke-opacity="0.7" stroke-width="3"/>
    <rect x="28" y="34" width="98" height="18" rx="9" fill="#f97316"/>
    <rect x="28" y="74" width="86" height="16" rx="8" fill="#b9d0cb"/>
    <rect x="28" y="115" width="98" height="44" rx="16" fill="#fff0e4"/>
    <circle cx="120" cy="158" r="23" fill="#f97316"/>
  </g>

  <g transform="translate(626 520)" filter="url(#softShadow)">
    <rect x="0" y="0" width="154" height="202" rx="34" fill="url(#cardGlass)"/>
    <rect x="1.5" y="1.5" width="151" height="199" rx="32" fill="none" stroke="#ffffff" stroke-opacity="0.7" stroke-width="3"/>
    <rect x="28" y="34" width="98" height="18" rx="9" fill="#2563eb"/>
    <rect x="28" y="74" width="72" height="16" rx="8" fill="#b9d0cb"/>
    <rect x="28" y="115" width="98" height="44" rx="16" fill="#eaf1ff"/>
    <circle cx="120" cy="158" r="23" fill="#2563eb"/>
  </g>

  <g transform="translate(322 748)">
    <rect x="0" y="0" width="380" height="84" rx="42" fill="#12312d" opacity="0.94"/>
    <rect x="2" y="2" width="376" height="80" rx="40" fill="none" stroke="#ffffff" stroke-opacity="0.18" stroke-width="3"/>
    <text x="190" y="59"
          text-anchor="middle"
          font-family="Inter, SF Pro Display, Arial, sans-serif"
          font-size="52"
          font-weight="900"
          letter-spacing="8"
          fill="#ffffff">BAI</text>
  </g>
</svg>
